<?xml version="1.0" encoding="utf-8"?>
<!-- Generator: Adobe Illustrator 24.0.3, SVG Export Plug-In . SVG Version: 6.00 Build 0)  -->
<svg version="1.1" id="レイヤー_1" xmlns="http://www.w3.org/2000/svg" xmlns:xlink="http://www.w3.org/1999/xlink" x="0px"
	 y="0px" viewBox="0 0 81.8 70" style="enable-background:new 0 0 81.8 70;" xml:space="preserve">
<style type="text/css">
	.st0{fill:#FFFFFF;}
</style>
<g>
	<path class="st0" d="M17,29.1h4.6c3.4,0,5.6,2.2,5.6,5.7c0,3.4-2.2,6-5.8,6H17V29.1z M19.5,38.7h1.9c2.2,0,3.2-1.7,3.2-4
		c0-1.9-0.9-3.7-3.2-3.7h-1.9V38.7z"/>
	<path class="st0" d="M37.6,35.7H32v3h6.2l-0.3,2.1h-8.3V29.1h8.3v2.1H32v2.5h5.6V35.7z"/>
	<path class="st0" d="M49.8,36.4c0-2,0-4.2,0.1-5.6h-0.1c-0.6,2.4-1.7,6.3-2.8,10h-2.2c-0.9-3.2-2.1-7.7-2.6-10h-0.1
		c0.1,1.4,0.1,3.8,0.1,5.8v4.2H40V29.1h3.8c0.9,3.1,1.9,6.9,2.3,8.6h0c0.3-1.5,1.6-5.6,2.6-8.6h3.6v11.7h-2.4V36.4z"/>
	<path class="st0" d="M65.8,34.9c0,3.3-2,6.1-5.8,6.1c-3.7,0-5.6-2.7-5.6-6c0-3.4,2.1-6,5.8-6C63.7,28.9,65.8,31.3,65.8,34.9z
		 M57.1,34.9c0,2.3,1,4,3.1,4c2.3,0,3.1-1.9,3.1-4c0-2.2-0.9-4-3.1-4C58,31,57.1,32.6,57.1,34.9z"/>
</g>
</svg>
